<?xml version="1.0" encoding="UTF-8"?>
<svg id="Layer_2" data-name="Layer 2" xmlns="http://www.w3.org/2000/svg" viewBox="0 0 225.35 184.18">
  <defs>
    <style>
      .cls-1 {
        fill: none;
        stroke: #000;
        stroke-linecap: round;
        stroke-width: 2px;
      }
    </style>
  </defs>
  <g id="Layer_2-2" data-name="Layer 2">
    <path class="cls-1" d="M208.66,113.29l6.78,10.17m0,0l5.7-5.09,3.21-11.89m0,0l-17.64-5.73m1.95,12.54l-1.95-12.54m6.04,24.84l-7.7,3.38-8.93,8.78m0,0l-.47-5.85m0,0l-17.71,11.09m0,0l7.09-11.24,2-7.55m0,0l-6.01-3.39-14.16,7.7m0,0v-10.01m0,0l-6.47,3.54m0,0l-1.08-8-6.47-4.01-23.56,12.01m0,0l9.7,5.86,7.7,17.4,15.09,11.85,12.94-2.77m0,0l-4.62,8.01m0,0l5.39,.31,7.7-2.16m0,0l-7.7,10.47m0,0l3.54,3.24m0,0l-20.48,5.08-21.56-24.49m0,0l1.39,8.78m0,0l-27.41-9.24-10.78-14.01m0,0l1.38,17.71-17.4,15.4m0,0l1.23-15.09-9.7-13.71m0,0l-2.77,9.55m0,0l-15.56-21.1,1.39-24.02m0,0l-9.24,24.02,18.79,50.05m0,0l-46.66-29.26L6.54,120.97l12.32-34.5m0,0L1,90.78m0,0l7.85-22.94,17.56-15.56m0,0l-12.17,1.54m0,0l12.94-10.47,17.71-.77,3.85,8.78,17.86,16.17m0,0l15.71-12.94,29.26-4.62m0,0l-18.79-14.01-18.01-21.1m0,0l11.39-.15,5.24-4.16m0,0l20.94,13.86,5.7-3.24m0,0l17.56,18.95,26.64,11.39,11.08,25.72m0,0l-6.16,4.62m0,0l35.58,16.17,2.46,15.25m7.55,12.32l-7.55-12.32m-64.22-41.47l11.55,4.16,.93,4.62,9.08,10.78m0,0l-16.32-6.47-5.24-13.09m21.56,19.56l4.62-9.51m-99.79-20.79l-12.78-9.24-4.31-8.47-1.08-21.87L37.5,1m0,0l25.87,9.09,24.95,28.95,14.47,9.08m0,0l-12.32,1.24-15.86-9.55m0,0l4.16,10.47m-11.4,10.78l11.4-10.78"/>
  </g>
</svg>