<?xml version="1.0" encoding="UTF-8"?>
<svg id="Layer_2" data-name="Layer 2" xmlns="http://www.w3.org/2000/svg" viewBox="0 0 225.35 184.18">
  <defs>
    <style>
      .cls-1 {
        fill: none;
        stroke: #000;
        stroke-linecap: round;
        stroke-width: 2px;
      }
    </style>
  </defs>
  <g id="Layer_1-2" data-name="Layer 1">
    <g id="blender_frame_222" data-name="blender frame 222">
      <g id="blender_object_GPencil" data-name="blender object GPencil">
        <g id="Plane_001_Lines" data-name="Plane 001 Lines">
          <line class="cls-1" x1="208.66" y1="113.29" x2="215.44" y2="123.46"/>
          <polyline class="cls-1" points="215.44 123.46 221.14 118.37 224.35 106.48"/>
          <line class="cls-1" x1="224.35" y1="106.48" x2="206.71" y2="100.75"/>
          <line class="cls-1" x1="208.66" y1="113.29" x2="206.71" y2="100.75"/>
          <polyline class="cls-1" points="212.75 125.59 205.05 128.97 196.12 137.75"/>
          <line class="cls-1" x1="196.12" y1="137.75" x2="195.65" y2="131.9"/>
          <line class="cls-1" x1="195.65" y1="131.9" x2="177.94" y2="142.99"/>
          <polyline class="cls-1" points="177.94 142.99 185.03 131.75 187.03 124.2"/>
          <polyline class="cls-1" points="187.03 124.2 181.02 120.81 166.86 128.51"/>
          <line class="cls-1" x1="166.86" y1="128.51" x2="166.86" y2="118.5"/>
          <line class="cls-1" x1="166.86" y1="118.5" x2="160.39" y2="122.04"/>
          <polyline class="cls-1" points="160.39 122.04 159.31 114.04 152.84 110.03 129.28 122.04"/>
          <polyline class="cls-1" points="129.28 122.04 138.98 127.9 146.68 145.3 161.77 157.15 174.71 154.38"/>
          <line class="cls-1" x1="174.71" y1="154.38" x2="170.09" y2="162.39"/>
          <polyline class="cls-1" points="170.09 162.39 175.48 162.7 183.18 160.54"/>
          <line class="cls-1" x1="183.18" y1="160.54" x2="175.48" y2="171.01"/>
          <line class="cls-1" x1="175.48" y1="171.01" x2="179.02" y2="174.25"/>
          <polyline class="cls-1" points="179.02 174.25 158.54 179.33 136.98 154.84"/>
          <line class="cls-1" x1="136.98" y1="154.84" x2="138.37" y2="163.62"/>
          <polyline class="cls-1" points="138.37 163.62 110.96 154.38 100.18 140.37"/>
          <polyline class="cls-1" points="100.18 140.37 101.56 158.08 84.16 173.48"/>
          <polyline class="cls-1" points="84.16 173.48 85.39 158.39 75.69 144.68"/>
          <line class="cls-1" x1="75.69" y1="144.68" x2="72.92" y2="154.23"/>
          <polyline class="cls-1" points="72.92 154.23 57.36 133.13 58.75 109.11"/>
          <polyline class="cls-1" points="58.75 109.11 49.51 133.13 68.3 183.18"/>
          <polyline class="cls-1" points="68.3 183.18 21.64 153.92 6.54 120.97 18.86 86.47"/>
          <line class="cls-1" x1="18.86" y1="86.47" x2="1" y2="90.78"/>
          <polyline class="cls-1" points="1 90.78 8.85 67.84 26.41 52.28"/>
          <line class="cls-1" x1="26.41" y1="52.28" x2="14.24" y2="53.82"/>
          <polyline class="cls-1" points="14.24 53.82 27.18 43.35 44.89 42.58 48.74 51.36 66.6 67.53"/>
          <polyline class="cls-1" points="66.6 67.53 82.31 54.59 111.57 49.97"/>
          <polyline class="cls-1" points="111.57 49.97 92.78 35.96 74.77 14.86"/>
          <polyline class="cls-1" points="74.77 14.86 86.16 14.71 91.4 10.55"/>
          <polyline class="cls-1" points="91.4 10.55 112.34 24.41 118.04 21.17"/>
          <polyline class="cls-1" points="118.04 21.17 135.6 40.12 162.24 51.51 173.32 77.23"/>
          <line class="cls-1" x1="173.32" y1="77.23" x2="167.16" y2="81.85"/>
          <polyline class="cls-1" points="167.16 81.85 202.74 98.02 205.2 113.27"/>
          <line class="cls-1" x1="212.75" y1="125.59" x2="205.2" y2="113.27"/>
          <polyline class="cls-1" points="140.98 71.8 152.53 75.96 153.46 80.58 162.54 91.36"/>
          <polyline class="cls-1" points="162.54 91.36 146.22 84.89 140.98 71.8"/>
          <line class="cls-1" x1="162.54" y1="91.36" x2="167.16" y2="81.85"/>
          <polyline class="cls-1" points="67.37 61.06 54.59 51.82 50.28 43.35 49.2 21.48 37.5 1"/>
          <polyline class="cls-1" points="37.5 1 63.37 10.09 88.32 39.04 102.79 48.12"/>
          <polyline class="cls-1" points="102.79 48.12 90.47 49.36 74.61 39.81"/>
          <line class="cls-1" x1="74.61" y1="39.81" x2="78.77" y2="50.28"/>
          <line class="cls-1" x1="67.37" y1="61.06" x2="78.77" y2="50.28"/>
        </g>
      </g>
    </g>
    <g id="blender_frame_222-2" data-name="blender frame 222">
      <g id="blender_object_GPencil-2" data-name="blender object GPencil">
        <g id="Plane_001_Lines-2" data-name="Plane 001 Lines">
          <line class="cls-1" x1="208.66" y1="113.29" x2="215.44" y2="123.46"/>
          <polyline class="cls-1" points="215.44 123.46 221.14 118.37 224.35 106.48"/>
          <line class="cls-1" x1="224.35" y1="106.48" x2="206.71" y2="100.75"/>
          <line class="cls-1" x1="208.66" y1="113.29" x2="206.71" y2="100.75"/>
          <polyline class="cls-1" points="212.75 125.59 205.05 128.97 196.12 137.75"/>
          <line class="cls-1" x1="196.12" y1="137.75" x2="195.65" y2="131.9"/>
          <line class="cls-1" x1="195.65" y1="131.9" x2="177.94" y2="142.99"/>
          <polyline class="cls-1" points="177.94 142.99 185.03 131.75 187.03 124.2"/>
          <polyline class="cls-1" points="187.03 124.2 181.02 120.81 166.86 128.51"/>
          <line class="cls-1" x1="166.86" y1="128.51" x2="166.86" y2="118.5"/>
          <line class="cls-1" x1="166.86" y1="118.5" x2="160.39" y2="122.04"/>
          <polyline class="cls-1" points="160.39 122.04 159.31 114.04 152.84 110.03 129.28 122.04"/>
          <polyline class="cls-1" points="129.28 122.04 138.98 127.9 146.68 145.3 161.77 157.15 174.71 154.38"/>
          <line class="cls-1" x1="174.71" y1="154.38" x2="170.09" y2="162.39"/>
          <polyline class="cls-1" points="170.09 162.39 175.48 162.7 183.18 160.54"/>
          <line class="cls-1" x1="183.18" y1="160.54" x2="175.48" y2="171.01"/>
          <line class="cls-1" x1="175.48" y1="171.01" x2="179.02" y2="174.25"/>
          <polyline class="cls-1" points="179.02 174.25 158.54 179.33 136.98 154.84"/>
          <line class="cls-1" x1="136.98" y1="154.84" x2="138.37" y2="163.62"/>
          <polyline class="cls-1" points="138.37 163.62 110.96 154.38 100.18 140.37"/>
          <polyline class="cls-1" points="100.18 140.37 101.56 158.08 84.16 173.48"/>
          <polyline class="cls-1" points="84.16 173.48 85.39 158.39 75.69 144.68"/>
          <line class="cls-1" x1="75.69" y1="144.68" x2="72.92" y2="154.23"/>
          <polyline class="cls-1" points="72.92 154.23 57.36 133.13 58.75 109.11"/>
          <polyline class="cls-1" points="58.75 109.11 49.51 133.13 68.3 183.18"/>
          <polyline class="cls-1" points="68.3 183.18 21.64 153.92 6.54 120.97 18.86 86.47"/>
          <line class="cls-1" x1="18.86" y1="86.47" x2="1" y2="90.78"/>
          <polyline class="cls-1" points="1 90.78 8.85 67.84 26.41 52.28"/>
          <line class="cls-1" x1="26.41" y1="52.28" x2="14.24" y2="53.82"/>
          <polyline class="cls-1" points="14.24 53.82 27.18 43.35 44.89 42.58 48.74 51.36 66.6 67.53"/>
          <polyline class="cls-1" points="66.6 67.53 82.31 54.59 111.57 49.97"/>
          <polyline class="cls-1" points="111.57 49.97 92.78 35.96 74.77 14.86"/>
          <polyline class="cls-1" points="74.77 14.86 86.16 14.71 91.4 10.55"/>
          <polyline class="cls-1" points="91.4 10.55 112.34 24.41 118.04 21.17"/>
          <polyline class="cls-1" points="118.04 21.17 135.6 40.12 162.24 51.51 173.32 77.23"/>
          <line class="cls-1" x1="173.32" y1="77.23" x2="167.16" y2="81.85"/>
          <polyline class="cls-1" points="167.16 81.85 202.74 98.02 205.2 113.27"/>
          <line class="cls-1" x1="212.75" y1="125.59" x2="205.2" y2="113.27"/>
          <polyline class="cls-1" points="140.98 71.8 152.53 75.96 153.46 80.58 162.54 91.36"/>
          <polyline class="cls-1" points="162.54 91.36 146.22 84.89 140.98 71.8"/>
          <line class="cls-1" x1="162.54" y1="91.36" x2="167.16" y2="81.85"/>
          <polyline class="cls-1" points="67.37 61.06 54.59 51.82 50.28 43.35 49.2 21.48 37.5 1"/>
          <polyline class="cls-1" points="37.5 1 63.37 10.09 88.32 39.04 102.79 48.12"/>
          <polyline class="cls-1" points="102.79 48.12 90.47 49.36 74.61 39.81"/>
          <line class="cls-1" x1="74.61" y1="39.81" x2="78.77" y2="50.28"/>
          <line class="cls-1" x1="67.37" y1="61.06" x2="78.77" y2="50.28"/>
        </g>
      </g>
    </g>
  </g>
</svg>